<svg width="400" height="270" viewBox="0 0 359 238" fill="none" xmlns="http://www.w3.org/2000/svg">
<g filter="url(#filter0_d_44_53)">
<rect x="20" y="29" width="295" height="150" rx="20" fill="white"/>
</g>
<path d="M265.143 150.3H270.115V151.587L267.508 158H265.902L268.432 151.752H265.143V150.3ZM271.383 159.1H270.756L275.156 149.2H275.783L271.383 159.1ZM276.447 158V156.867L279.076 154.161C279.663 153.545 279.956 153.032 279.956 152.621C279.956 152.32 279.861 152.078 279.67 151.895C279.487 151.712 279.249 151.62 278.955 151.62C278.376 151.62 277.947 151.921 277.668 152.522L276.392 151.774C276.634 151.246 276.983 150.843 277.437 150.564C277.892 150.285 278.391 150.146 278.933 150.146C279.63 150.146 280.228 150.366 280.726 150.806C281.225 151.239 281.474 151.825 281.474 152.566C281.474 153.365 281.053 154.187 280.209 155.03L278.702 156.537H281.595V158H276.447ZM283.978 150.3H285.298V158H283.78V151.906L282.328 152.313L281.954 151.015L283.978 150.3Z" fill="#AAAAAA"/>
<path d="M258.512 139.208H261.437V140H257.675V133.7H261.392V134.492H258.512V136.427H261.167V137.21H258.512V139.208ZM266.272 140H265.354L264.094 138.299L262.825 140H261.907L263.635 137.687L262.006 135.5H262.933L264.094 137.066L265.255 135.5H266.173L264.553 137.678L266.272 140ZM269.482 135.383C270.112 135.383 270.649 135.614 271.093 136.076C271.537 136.532 271.759 137.09 271.759 137.75C271.759 138.41 271.537 138.971 271.093 139.433C270.649 139.889 270.112 140.117 269.482 140.117C268.738 140.117 268.171 139.82 267.781 139.226V141.8H266.998V135.5H267.781V136.274C268.171 135.68 268.738 135.383 269.482 135.383ZM269.383 139.361C269.833 139.361 270.211 139.208 270.517 138.902C270.823 138.59 270.976 138.206 270.976 137.75C270.976 137.294 270.823 136.913 270.517 136.607C270.211 136.295 269.833 136.139 269.383 136.139C268.927 136.139 268.546 136.295 268.24 136.607C267.934 136.913 267.781 137.294 267.781 137.75C267.781 138.206 267.934 138.59 268.24 138.902C268.546 139.208 268.927 139.361 269.383 139.361ZM277.482 133.7C278.34 133.7 279.051 134.006 279.615 134.618C280.185 135.224 280.47 135.968 280.47 136.85C280.47 137.732 280.185 138.479 279.615 139.091C279.051 139.697 278.34 140 277.482 140H275.025V133.7H277.482ZM277.482 139.208C278.124 139.208 278.649 138.983 279.057 138.533C279.465 138.083 279.669 137.522 279.669 136.85C279.669 136.178 279.465 135.617 279.057 135.167C278.649 134.717 278.124 134.492 277.482 134.492H275.862V139.208H277.482ZM285.13 135.5H285.913V140H285.13V139.226C284.74 139.82 284.173 140.117 283.429 140.117C282.799 140.117 282.262 139.889 281.818 139.433C281.374 138.971 281.152 138.41 281.152 137.75C281.152 137.09 281.374 136.532 281.818 136.076C282.262 135.614 282.799 135.383 283.429 135.383C284.173 135.383 284.74 135.68 285.13 136.274V135.5ZM283.528 139.361C283.984 139.361 284.365 139.208 284.671 138.902C284.977 138.59 285.13 138.206 285.13 137.75C285.13 137.294 284.977 136.913 284.671 136.607C284.365 136.295 283.984 136.139 283.528 136.139C283.078 136.139 282.7 136.295 282.394 136.607C282.088 136.913 281.935 137.294 281.935 137.75C281.935 138.206 282.088 138.59 282.394 138.902C282.7 139.208 283.078 139.361 283.528 139.361ZM289.547 136.256H288.35V138.695C288.35 138.917 288.392 139.076 288.476 139.172C288.566 139.262 288.701 139.31 288.881 139.316C289.061 139.316 289.283 139.31 289.547 139.298V140C288.863 140.09 288.362 140.036 288.044 139.838C287.726 139.634 287.567 139.253 287.567 138.695V136.256H286.676V135.5H287.567V134.474L288.35 134.24V135.5H289.547V136.256ZM290.794 138.11C290.872 138.512 291.055 138.824 291.343 139.046C291.637 139.268 291.997 139.379 292.423 139.379C293.017 139.379 293.449 139.16 293.719 138.722L294.385 139.1C293.947 139.778 293.287 140.117 292.405 140.117C291.691 140.117 291.109 139.895 290.659 139.451C290.215 139.001 289.993 138.434 289.993 137.75C289.993 137.072 290.212 136.508 290.65 136.058C291.088 135.608 291.655 135.383 292.351 135.383C293.011 135.383 293.548 135.617 293.962 136.085C294.382 136.547 294.592 137.105 294.592 137.759C294.592 137.873 294.583 137.99 294.565 138.11H290.794ZM292.351 136.121C291.931 136.121 291.583 136.241 291.307 136.481C291.031 136.715 290.86 137.03 290.794 137.426H293.8C293.734 137 293.566 136.676 293.296 136.454C293.026 136.232 292.711 136.121 292.351 136.121Z" fill="black"/>
<path d="M48.384 134.864C48.384 135.803 48.0853 136.565 47.488 137.152C46.8907 137.728 46.112 138.075 45.152 138.192V139.6H44.08V138.208C43.184 138.144 42.416 137.893 41.776 137.456C41.136 137.019 40.6773 136.427 40.4 135.68L42.304 134.576C42.6453 135.429 43.2373 135.915 44.08 136.032V133.264C44.0693 133.264 44.064 133.264 44.064 133.264L44.032 133.248C43.6587 133.109 43.3547 132.987 43.12 132.88C42.8853 132.773 42.608 132.619 42.288 132.416C41.9787 132.213 41.7333 132.005 41.552 131.792C41.3813 131.568 41.2267 131.285 41.088 130.944C40.96 130.603 40.896 130.229 40.896 129.824C40.896 128.885 41.2 128.133 41.808 127.568C42.4267 127.003 43.184 126.677 44.08 126.592V125.2H45.152V126.624C46.6027 126.795 47.6267 127.547 48.224 128.88L46.368 129.968C46.112 129.328 45.7067 128.939 45.152 128.8V131.472C46.144 131.867 46.8107 132.181 47.152 132.416C47.9733 133.003 48.384 133.819 48.384 134.864ZM43.088 129.84C43.088 130.075 43.1627 130.283 43.312 130.464C43.4613 130.635 43.7173 130.811 44.08 130.992V128.752C43.76 128.816 43.5147 128.944 43.344 129.136C43.1733 129.328 43.088 129.563 43.088 129.84ZM45.152 136C45.8347 135.851 46.176 135.477 46.176 134.88C46.176 134.613 46.0907 134.389 45.92 134.208C45.76 134.027 45.504 133.856 45.152 133.696V136ZM51.9013 126.8H53.8213V138H51.6133V129.136L49.5013 129.728L48.9573 127.84L51.9013 126.8ZM60.0088 138.224C58.6114 138.224 57.5128 137.696 56.7128 136.64C55.9234 135.573 55.5288 134.16 55.5288 132.4C55.5288 130.64 55.9234 129.232 56.7128 128.176C57.5128 127.109 58.6114 126.576 60.0088 126.576C61.4168 126.576 62.5154 127.109 63.3048 128.176C64.0941 129.232 64.4888 130.64 64.4888 132.4C64.4888 134.16 64.0941 135.573 63.3048 136.64C62.5154 137.696 61.4168 138.224 60.0088 138.224ZM58.3128 135.136C58.6968 135.755 59.2621 136.064 60.0088 136.064C60.7554 136.064 61.3208 135.749 61.7048 135.12C62.0994 134.491 62.2968 133.584 62.2968 132.4C62.2968 131.205 62.0994 130.293 61.7048 129.664C61.3208 129.035 60.7554 128.72 60.0088 128.72C59.2621 128.72 58.6968 129.035 58.3128 129.664C57.9288 130.293 57.7368 131.205 57.7368 132.4C57.7368 133.595 57.9288 134.507 58.3128 135.136ZM74.0869 138.224C72.6895 138.224 71.5909 137.696 70.7909 136.64C70.0015 135.573 69.6069 134.16 69.6069 132.4C69.6069 130.64 70.0015 129.232 70.7909 128.176C71.5909 127.109 72.6895 126.576 74.0869 126.576C75.4949 126.576 76.5935 127.109 77.3829 128.176C78.1722 129.232 78.5669 130.64 78.5669 132.4C78.5669 134.16 78.1722 135.573 77.3829 136.64C76.5935 137.696 75.4949 138.224 74.0869 138.224ZM72.3909 135.136C72.7749 135.755 73.3402 136.064 74.0869 136.064C74.8335 136.064 75.3989 135.749 75.7829 135.12C76.1775 134.491 76.3749 133.584 76.3749 132.4C76.3749 131.205 76.1775 130.293 75.7829 129.664C75.3989 129.035 74.8335 128.72 74.0869 128.72C73.3402 128.72 72.7749 129.035 72.3909 129.664C72.0069 130.293 71.8149 131.205 71.8149 132.4C71.8149 133.595 72.0069 134.507 72.3909 135.136ZM84.165 138.224C82.7677 138.224 81.669 137.696 80.869 136.64C80.0797 135.573 79.685 134.16 79.685 132.4C79.685 130.64 80.0797 129.232 80.869 128.176C81.669 127.109 82.7677 126.576 84.165 126.576C85.573 126.576 86.6717 127.109 87.461 128.176C88.2503 129.232 88.645 130.64 88.645 132.4C88.645 134.16 88.2503 135.573 87.461 136.64C86.6717 137.696 85.573 138.224 84.165 138.224ZM82.469 135.136C82.853 135.755 83.4183 136.064 84.165 136.064C84.9117 136.064 85.477 135.749 85.861 135.12C86.2557 134.491 86.453 133.584 86.453 132.4C86.453 131.205 86.2557 130.293 85.861 129.664C85.477 129.035 84.9117 128.72 84.165 128.72C83.4183 128.72 82.853 129.035 82.469 129.664C82.085 130.293 81.893 131.205 81.893 132.4C81.893 133.595 82.085 134.507 82.469 135.136ZM94.2431 138.224C92.8458 138.224 91.7471 137.696 90.9471 136.64C90.1578 135.573 89.7631 134.16 89.7631 132.4C89.7631 130.64 90.1578 129.232 90.9471 128.176C91.7471 127.109 92.8458 126.576 94.2431 126.576C95.6511 126.576 96.7498 127.109 97.5391 128.176C98.3285 129.232 98.7231 130.64 98.7231 132.4C98.7231 134.16 98.3285 135.573 97.5391 136.64C96.7498 137.696 95.6511 138.224 94.2431 138.224ZM92.5471 135.136C92.9311 135.755 93.4965 136.064 94.2431 136.064C94.9898 136.064 95.5551 135.749 95.9391 135.12C96.3338 134.491 96.5311 133.584 96.5311 132.4C96.5311 131.205 96.3338 130.293 95.9391 129.664C95.5551 129.035 94.9898 128.72 94.2431 128.72C93.4965 128.72 92.9311 129.035 92.5471 129.664C92.1631 130.293 91.9711 131.205 91.9711 132.4C91.9711 133.595 92.1631 134.507 92.5471 135.136Z" fill="black"/>
<path d="M186.145 99.3H187.465V107H185.947V100.906L184.495 101.313L184.121 100.015L186.145 99.3ZM192.137 102.424C192.658 102.578 193.079 102.849 193.402 103.238C193.732 103.619 193.897 104.081 193.897 104.624C193.897 105.416 193.629 106.036 193.094 106.483C192.566 106.93 191.917 107.154 191.147 107.154C190.546 107.154 190.007 107.018 189.53 106.747C189.061 106.468 188.72 106.061 188.507 105.526L189.805 104.778C189.996 105.372 190.443 105.669 191.147 105.669C191.536 105.669 191.836 105.577 192.049 105.394C192.269 105.203 192.379 104.947 192.379 104.624C192.379 104.309 192.269 104.056 192.049 103.865C191.836 103.674 191.536 103.579 191.147 103.579H190.817L190.234 102.699L191.752 100.719H188.738V99.3H193.578V100.554L192.137 102.424ZM199.691 101.819C199.691 102.413 199.537 102.934 199.229 103.381H199.24L196.842 107H195.104L196.82 104.492C196.021 104.477 195.368 104.224 194.862 103.733C194.364 103.234 194.114 102.596 194.114 101.819C194.114 101.034 194.371 100.393 194.884 99.894C195.405 99.3953 196.076 99.146 196.897 99.146C197.726 99.146 198.397 99.3953 198.91 99.894C199.431 100.385 199.691 101.027 199.691 101.819ZM195.621 101.819C195.621 102.2 195.742 102.505 195.984 102.732C196.234 102.959 196.538 103.073 196.897 103.073C197.271 103.073 197.579 102.959 197.821 102.732C198.063 102.505 198.184 102.2 198.184 101.819C198.184 101.438 198.063 101.137 197.821 100.917C197.579 100.69 197.271 100.576 196.897 100.576C196.538 100.576 196.234 100.69 195.984 100.917C195.742 101.144 195.621 101.445 195.621 101.819ZM199.87 99.3H204.842V100.587L202.235 107H200.629L203.159 100.752H199.87V99.3Z" fill="black"/>
<circle cx="42" cy="104" r="2" fill="black"/>
<circle cx="50" cy="104" r="2" fill="black"/>
<circle cx="58" cy="104" r="2" fill="black"/>
<circle cx="66" cy="104" r="2" fill="black"/>
<circle cx="90" cy="104" r="2" fill="black"/>
<circle cx="98" cy="104" r="2" fill="black"/>
<circle cx="106" cy="104" r="2" fill="black"/>
<circle cx="114" cy="104" r="2" fill="black"/>
<circle cx="138" cy="104" r="2" fill="black"/>
<circle cx="146" cy="104" r="2" fill="black"/>
<circle cx="154" cy="104" r="2" fill="black"/>
<circle cx="162" cy="104" r="2" fill="black"/>
<path d="M45.588 151.3H46.6V159H45.588V155.535H41.848V159H40.825V151.3H41.848V154.567H45.588V151.3ZM52.7029 153.5H53.6599V159H52.7029V158.054C52.2262 158.78 51.5332 159.143 50.6239 159.143C49.8539 159.143 49.1975 158.864 48.6549 158.307C48.1122 157.742 47.8409 157.057 47.8409 156.25C47.8409 155.443 48.1122 154.761 48.6549 154.204C49.1975 153.639 49.8539 153.357 50.6239 153.357C51.5332 153.357 52.2262 153.72 52.7029 154.446V153.5ZM50.7449 158.219C51.3022 158.219 51.7679 158.032 52.1419 157.658C52.5159 157.277 52.7029 156.807 52.7029 156.25C52.7029 155.693 52.5159 155.227 52.1419 154.853C51.7679 154.472 51.3022 154.281 50.7449 154.281C50.1949 154.281 49.7329 154.472 49.3589 154.853C48.9849 155.227 48.7979 155.693 48.7979 156.25C48.7979 156.807 48.9849 157.277 49.3589 157.658C49.7329 158.032 50.1949 158.219 50.7449 158.219ZM55.924 154.985C55.924 155.198 56.0304 155.37 56.243 155.502C56.4557 155.627 56.7124 155.729 57.013 155.81C57.3137 155.883 57.6144 155.971 57.915 156.074C58.2157 156.169 58.4724 156.338 58.685 156.58C58.8977 156.815 59.004 157.119 59.004 157.493C59.004 157.992 58.8097 158.391 58.421 158.692C58.0397 158.993 57.5484 159.143 56.947 159.143C56.4117 159.143 55.9534 159.026 55.572 158.791C55.1907 158.556 54.9194 158.245 54.758 157.856L55.583 157.383C55.671 157.647 55.836 157.856 56.078 158.01C56.32 158.164 56.6097 158.241 56.947 158.241C57.2624 158.241 57.5227 158.182 57.728 158.065C57.9334 157.94 58.036 157.75 58.036 157.493C58.036 157.28 57.9297 157.112 57.717 156.987C57.5044 156.855 57.2477 156.752 56.947 156.679C56.6464 156.598 56.3457 156.507 56.045 156.404C55.7444 156.301 55.4877 156.133 55.275 155.898C55.0624 155.663 54.956 155.363 54.956 154.996C54.956 154.519 55.1394 154.127 55.506 153.819C55.88 153.511 56.3457 153.357 56.903 153.357C57.3504 153.357 57.7464 153.46 58.091 153.665C58.443 153.863 58.707 154.142 58.883 154.501L58.08 154.952C57.882 154.483 57.4897 154.248 56.903 154.248C56.6317 154.248 56.4007 154.314 56.21 154.446C56.0194 154.571 55.924 154.75 55.924 154.985ZM64.5407 153.5H65.4977V159H64.5407V158.054C64.0641 158.78 63.3711 159.143 62.4617 159.143C61.6917 159.143 61.0354 158.864 60.4927 158.307C59.9501 157.742 59.6787 157.057 59.6787 156.25C59.6787 155.443 59.9501 154.761 60.4927 154.204C61.0354 153.639 61.6917 153.357 62.4617 153.357C63.3711 153.357 64.0641 153.72 64.5407 154.446V153.5ZM62.5827 158.219C63.1401 158.219 63.6057 158.032 63.9797 157.658C64.3537 157.277 64.5407 156.807 64.5407 156.25C64.5407 155.693 64.3537 155.227 63.9797 154.853C63.6057 154.472 63.1401 154.281 62.5827 154.281C62.0327 154.281 61.5707 154.472 61.1967 154.853C60.8227 155.227 60.6357 155.693 60.6357 156.25C60.6357 156.807 60.8227 157.277 61.1967 157.658C61.5707 158.032 62.0327 158.219 62.5827 158.219ZM69.6867 153.357C70.332 153.357 70.849 153.562 71.2377 153.973C71.6263 154.376 71.8207 154.926 71.8207 155.623V159H70.8637V155.678C70.8637 155.231 70.7427 154.886 70.5007 154.644C70.2587 154.395 69.925 154.27 69.4997 154.27C69.023 154.27 68.638 154.42 68.3447 154.721C68.0513 155.014 67.9047 155.469 67.9047 156.085V159H66.9477V153.5H67.9047V154.292C68.2933 153.669 68.8873 153.357 69.6867 153.357ZM83.2107 151.3V159H82.1987V152.983L79.6797 157.174H79.5477L77.0287 152.994V159H76.0057V151.3H77.1607L79.6137 155.37L82.0557 151.3H83.2107ZM89.3122 153.5H90.2692V159H89.3122V158.054C88.8356 158.78 88.1426 159.143 87.2332 159.143C86.4632 159.143 85.8069 158.864 85.2642 158.307C84.7216 157.742 84.4502 157.057 84.4502 156.25C84.4502 155.443 84.7216 154.761 85.2642 154.204C85.8069 153.639 86.4632 153.357 87.2332 153.357C88.1426 153.357 88.8356 153.72 89.3122 154.446V153.5ZM87.3542 158.219C87.9116 158.219 88.3772 158.032 88.7512 157.658C89.1252 157.277 89.3122 156.807 89.3122 156.25C89.3122 155.693 89.1252 155.227 88.7512 154.853C88.3772 154.472 87.9116 154.281 87.3542 154.281C86.8042 154.281 86.3422 154.472 85.9682 154.853C85.5942 155.227 85.4072 155.693 85.4072 156.25C85.4072 156.807 85.5942 157.277 85.9682 157.658C86.3422 158.032 86.8042 158.219 87.3542 158.219ZM94.4582 153.357C95.1035 153.357 95.6205 153.562 96.0092 153.973C96.3978 154.376 96.5922 154.926 96.5922 155.623V159H95.6352V155.678C95.6352 155.231 95.5142 154.886 95.2722 154.644C95.0302 154.395 94.6965 154.27 94.2712 154.27C93.7945 154.27 93.4095 154.42 93.1162 154.721C92.8228 155.014 92.6762 155.469 92.6762 156.085V159H91.7192V151.3H92.6762V154.292C93.0648 153.669 93.6588 153.357 94.4582 153.357ZM103.868 153.357C104.484 153.357 104.983 153.559 105.364 153.962C105.745 154.358 105.936 154.897 105.936 155.579V159H104.979V155.612C104.979 155.187 104.869 154.857 104.649 154.622C104.429 154.387 104.136 154.27 103.769 154.27C103.358 154.27 103.028 154.409 102.779 154.688C102.537 154.959 102.416 155.377 102.416 155.942V159H101.459V155.612C101.459 155.187 101.353 154.857 101.14 154.622C100.935 154.387 100.652 154.27 100.293 154.27C99.8898 154.27 99.5525 154.409 99.2811 154.688C99.0171 154.967 98.8851 155.385 98.8851 155.942V159H97.9281V153.5H98.8851V154.237C99.2591 153.65 99.8055 153.357 100.524 153.357C101.265 153.357 101.804 153.669 102.141 154.292C102.522 153.669 103.098 153.357 103.868 153.357ZM111.058 153.5H112.015V159H111.058V158.208C110.669 158.831 110.075 159.143 109.276 159.143C108.631 159.143 108.114 158.941 107.725 158.538C107.336 158.127 107.142 157.574 107.142 156.877V153.5H108.099V156.822C108.099 157.269 108.22 157.618 108.462 157.867C108.704 158.109 109.038 158.23 109.463 158.23C109.94 158.23 110.325 158.083 110.618 157.79C110.911 157.489 111.058 157.031 111.058 156.415V153.5ZM118.026 151.3H118.983V159H118.026V158.054C117.549 158.78 116.856 159.143 115.947 159.143C115.177 159.143 114.521 158.864 113.978 158.307C113.435 157.742 113.164 157.057 113.164 156.25C113.164 155.443 113.435 154.761 113.978 154.204C114.521 153.639 115.177 153.357 115.947 153.357C116.856 153.357 117.549 153.72 118.026 154.446V151.3ZM116.068 158.219C116.625 158.219 117.091 158.032 117.465 157.658C117.839 157.277 118.026 156.807 118.026 156.25C118.026 155.693 117.839 155.227 117.465 154.853C117.091 154.472 116.625 154.281 116.068 154.281C115.518 154.281 115.056 154.472 114.682 154.853C114.308 155.227 114.121 155.693 114.121 156.25C114.121 156.807 114.308 157.277 114.682 157.658C115.056 158.032 115.518 158.219 116.068 158.219Z" fill="#AAAAAA"/>
<circle cx="273" cy="59" r="10" fill="#FF7D0D" fill-opacity="0.42"/>
<circle cx="285" cy="59" r="10" fill="#FF7D0D" fill-opacity="0.71"/>
<path d="M42.828 55.3C43.8767 55.3 44.7457 55.674 45.435 56.422C46.1317 57.1627 46.48 58.072 46.48 59.15C46.48 60.228 46.1317 61.141 45.435 61.889C44.7457 62.6297 43.8767 63 42.828 63H39.825V55.3H42.828ZM42.828 62.032C43.6127 62.032 44.2543 61.757 44.753 61.207C45.2517 60.657 45.501 59.9713 45.501 59.15C45.501 58.3287 45.2517 57.643 44.753 57.093C44.2543 56.543 43.6127 56.268 42.828 56.268H40.848V62.032H42.828ZM52.1755 57.5H53.1325V63H52.1755V62.054C51.6988 62.78 51.0058 63.143 50.0965 63.143C49.3265 63.143 48.6702 62.8643 48.1275 62.307C47.5848 61.7423 47.3135 61.0567 47.3135 60.25C47.3135 59.4433 47.5848 58.7613 48.1275 58.204C48.6702 57.6393 49.3265 57.357 50.0965 57.357C51.0058 57.357 51.6988 57.72 52.1755 58.446V57.5ZM50.2175 62.219C50.7748 62.219 51.2405 62.032 51.6145 61.658C51.9885 61.2767 52.1755 60.8073 52.1755 60.25C52.1755 59.6927 51.9885 59.227 51.6145 58.853C51.2405 58.4717 50.7748 58.281 50.2175 58.281C49.6675 58.281 49.2055 58.4717 48.8315 58.853C48.4575 59.227 48.2705 59.6927 48.2705 60.25C48.2705 60.8073 48.4575 61.2767 48.8315 61.658C49.2055 62.032 49.6675 62.219 50.2175 62.219ZM57.6184 57.357C58.3884 57.357 59.0448 57.6393 59.5874 58.204C60.1301 58.7613 60.4014 59.4433 60.4014 60.25C60.4014 61.0567 60.1301 61.7423 59.5874 62.307C59.0448 62.8643 58.3884 63.143 57.6184 63.143C56.7091 63.143 56.0161 62.78 55.5394 62.054V63H54.5824V55.3H55.5394V58.446C56.0161 57.72 56.7091 57.357 57.6184 57.357ZM57.4974 62.219C58.0474 62.219 58.5094 62.032 58.8834 61.658C59.2574 61.2767 59.4444 60.8073 59.4444 60.25C59.4444 59.6927 59.2574 59.227 58.8834 58.853C58.5094 58.4717 58.0474 58.281 57.4974 58.281C56.9401 58.281 56.4744 58.4717 56.1004 58.853C55.7264 59.227 55.5394 59.6927 55.5394 60.25C55.5394 60.8073 55.7264 61.2767 56.1004 61.658C56.4744 62.032 56.9401 62.219 57.4974 62.219ZM62.0274 56.499C61.844 56.499 61.69 56.4367 61.5654 56.312C61.4407 56.1873 61.3784 56.037 61.3784 55.861C61.3784 55.685 61.4407 55.5347 61.5654 55.41C61.69 55.278 61.844 55.212 62.0274 55.212C62.2034 55.212 62.3537 55.278 62.4784 55.41C62.603 55.5347 62.6654 55.685 62.6654 55.861C62.6654 56.037 62.603 56.1873 62.4784 56.312C62.3537 56.4367 62.2034 56.499 62.0274 56.499ZM61.5434 63V57.5H62.5004V63H61.5434ZM66.9524 58.424H65.4894V61.405C65.4894 61.6763 65.5407 61.8707 65.6434 61.988C65.7534 62.098 65.9184 62.1567 66.1384 62.164C66.3584 62.164 66.6297 62.1567 66.9524 62.142V63C66.1164 63.11 65.504 63.044 65.1154 62.802C64.7267 62.5527 64.5324 62.087 64.5324 61.405V58.424H63.4434V57.5H64.5324V56.246L65.4894 55.96V57.5H66.9524V58.424ZM74.5856 63.143C73.4196 63.143 72.4553 62.758 71.6926 61.988C70.9373 61.218 70.5596 60.272 70.5596 59.15C70.5596 58.028 70.9373 57.082 71.6926 56.312C72.4553 55.542 73.4196 55.157 74.5856 55.157C75.2896 55.157 75.9349 55.3257 76.5216 55.663C77.1156 56.0003 77.5776 56.455 77.9076 57.027L77.0166 57.544C76.7966 57.1187 76.4666 56.7813 76.0266 56.532C75.5939 56.2753 75.1136 56.147 74.5856 56.147C73.6983 56.147 72.9723 56.433 72.4076 57.005C71.8503 57.577 71.5716 58.292 71.5716 59.15C71.5716 60.0007 71.8503 60.712 72.4076 61.284C72.9723 61.856 73.6983 62.142 74.5856 62.142C75.1136 62.142 75.5939 62.0173 76.0266 61.768C76.4666 61.5113 76.7966 61.174 77.0166 60.756L77.9076 61.262C77.5849 61.834 77.1266 62.2923 76.5326 62.637C75.9386 62.9743 75.2896 63.143 74.5856 63.143ZM83.4997 57.5H84.4567V63H83.4997V62.054C83.0231 62.78 82.3301 63.143 81.4207 63.143C80.6507 63.143 79.9944 62.8643 79.4517 62.307C78.9091 61.7423 78.6377 61.0567 78.6377 60.25C78.6377 59.4433 78.9091 58.7613 79.4517 58.204C79.9944 57.6393 80.6507 57.357 81.4207 57.357C82.3301 57.357 83.0231 57.72 83.4997 58.446V57.5ZM81.5417 62.219C82.0991 62.219 82.5647 62.032 82.9387 61.658C83.3127 61.2767 83.4997 60.8073 83.4997 60.25C83.4997 59.6927 83.3127 59.227 82.9387 58.853C82.5647 58.4717 82.0991 58.281 81.5417 58.281C80.9917 58.281 80.5297 58.4717 80.1557 58.853C79.7817 59.227 79.5947 59.6927 79.5947 60.25C79.5947 60.8073 79.7817 61.2767 80.1557 61.658C80.5297 62.032 80.9917 62.219 81.5417 62.219ZM86.8637 58.424C87.179 57.742 87.751 57.401 88.5797 57.401V58.402C88.1103 58.38 87.707 58.5047 87.3697 58.776C87.0323 59.0473 86.8637 59.4837 86.8637 60.085V63H85.9067V57.5H86.8637V58.424ZM93.7693 55.3H94.7263V63H93.7693V62.054C93.2926 62.78 92.5996 63.143 91.6903 63.143C90.9203 63.143 90.2639 62.8643 89.7213 62.307C89.1786 61.7423 88.9073 61.0567 88.9073 60.25C88.9073 59.4433 89.1786 58.7613 89.7213 58.204C90.2639 57.6393 90.9203 57.357 91.6903 57.357C92.5996 57.357 93.2926 57.72 93.7693 58.446V55.3ZM91.8113 62.219C92.3686 62.219 92.8343 62.032 93.2083 61.658C93.5823 61.2767 93.7693 60.8073 93.7693 60.25C93.7693 59.6927 93.5823 59.227 93.2083 58.853C92.8343 58.4717 92.3686 58.281 91.8113 58.281C91.2613 58.281 90.7993 58.4717 90.4253 58.853C90.0513 59.227 89.8643 59.6927 89.8643 60.25C89.8643 60.8073 90.0513 61.2767 90.4253 61.658C90.7993 62.032 91.2613 62.219 91.8113 62.219Z" fill="black"/>
<defs>
<filter id="filter0_d_44_53" x="-24" y="0" width="383" height="238" filterUnits="userSpaceOnUse" color-interpolation-filters="sRGB">
<feFlood flood-opacity="0" result="BackgroundImageFix"/>
<feColorMatrix in="SourceAlpha" type="matrix" values="0 0 0 0 0 0 0 0 0 0 0 0 0 0 0 0 0 0 127 0" result="hardAlpha"/>
<feMorphology radius="4" operator="dilate" in="SourceAlpha" result="effect1_dropShadow_44_53"/>
<feOffset dy="15"/>
<feGaussianBlur stdDeviation="20"/>
<feColorMatrix type="matrix" values="0 0 0 0 0 0 0 0 0 0 0 0 0 0 0 0 0 0 0.05 0"/>
<feBlend mode="normal" in2="BackgroundImageFix" result="effect1_dropShadow_44_53"/>
<feBlend mode="normal" in="SourceGraphic" in2="effect1_dropShadow_44_53" result="shape"/>
</filter>
</defs>
</svg>
